# xmcd
#
# Track frame offsets: 
#        150
#        33080
#        55016
#        83997
#        104990
#        138062
#
# Disc length: 2143 seconds
#
# Revision: 1
# Processed by: cddbd v1.5.2PL0 Copyright (c) Steve Scherf et al.
# Submitted via: ExactAudioCopyFreeDBPlugin 1.0
#
DISCID=47085d06
DTITLE=本田竹曠 - Minton Blues
DYEAR=2012
DGENRE=Jazz
TTITLE0=Minton Blues
TTITLE1=Hey Jude
TTITLE2=By the time I get Phoenix
TTITLE3=Ain't tell you a good way but
TTITLE4=Stella by starlight
TTITLE5=Quiet sea
EXTD=
EXTT0=
EXTT1=
EXTT2=
EXTT3=
EXTT4=
EXTT5=
PLAYORDER=
